<svg width="512" height="512" viewBox="0 0 512 512" fill="none" xmlns="http://www.w3.org/2000/svg">
<path fill-rule="evenodd" clip-rule="evenodd" d="M210.658 123.555C210.658 113.544 218.79 105.429 228.821 105.429C296.811 105.429 351.929 160.431 351.929 228.28C351.929 238.29 343.794 246.405 333.765 246.405C323.734 246.405 315.602 238.29 315.602 228.28C315.602 180.452 276.748 141.68 228.821 141.68C218.79 141.68 210.658 133.565 210.658 123.555Z" fill="white"/>
<path fill-rule="evenodd" clip-rule="evenodd" d="M388.407 210.154C398.439 210.154 406.571 218.269 406.571 228.28C406.571 296.129 351.455 351.13 283.466 351.13C273.434 351.13 265.302 343.016 265.302 333.004C265.302 322.995 273.434 314.88 283.466 314.88C331.392 314.88 370.244 276.108 370.244 228.28C370.244 218.269 378.376 210.154 388.407 210.154Z" fill="white"/>
<path fill-rule="evenodd" clip-rule="evenodd" d="M301.627 388.444C301.627 398.456 293.495 406.571 283.463 406.571C215.475 406.571 160.358 351.569 160.358 283.719C160.358 273.71 168.49 265.595 178.522 265.595C188.553 265.595 196.685 273.71 196.685 283.719C196.685 331.548 235.537 370.321 283.463 370.321C293.495 370.321 301.627 378.435 301.627 388.444Z" fill="white"/>
<path fill-rule="evenodd" clip-rule="evenodd" d="M123.592 301.845C113.561 301.845 105.429 293.731 105.429 283.721C105.429 215.872 160.545 160.869 228.535 160.869C238.567 160.869 246.699 168.985 246.699 178.995C246.699 189.006 238.567 197.121 228.535 197.121C180.608 197.121 141.756 235.893 141.756 283.721C141.756 293.731 133.623 301.845 123.592 301.845Z" fill="white"/>
</svg>
